<?xml version="1.0" encoding="UTF-8"?>
<svg width="14px" height="14px" viewBox="0 0 14 14" version="1.1" xmlns="http://www.w3.org/2000/svg" xmlns:xlink="http://www.w3.org/1999/xlink">
    <title>A4172BDA-23BC-4C6C-8C06-6BAE08C87FE9</title>
    <defs>
        <path d="M5.93986637,0.912026726 L6.63207127,0.219821826 C6.92516704,-0.0732739421 7.39910913,-0.0732739421 7.68908686,0.219821826 L13.7505568,6.27817372 C14.0436526,6.57126949 14.0436526,7.04521158 13.7505568,7.33518931 L7.68908686,13.3966592 C7.39599109,13.689755 6.922049,13.689755 6.63207127,13.3966592 L5.93986637,12.7044543 C5.64365256,12.4082405 5.64988864,11.9249443 5.95233853,11.6349666 L9.70957684,8.05545657 L0.748329621,8.05545657 C0.33363029,8.05545657 1.13686838e-13,7.72182628 1.13686838e-13,7.30712695 L1.13686838e-13,6.30935412 C1.13686838e-13,5.89465479 0.33363029,5.5610245 0.748329621,5.5610245 L9.70957684,5.5610245 L5.95233853,1.98151448 C5.6467706,1.69153675 5.64053452,1.20824053 5.93986637,0.912026726 Z" id="path-1"></path>
    </defs>
    <g id="Settings" stroke="none" stroke-width="1" fill="none" fill-rule="evenodd">
        <g id="Calc-Settings-date-picker" transform="translate(-1333.000000, -392.000000)">
            <g id="Protip-" transform="translate(1009.000000, 115.000000)">
                <g id="Group-2" transform="translate(237.000000, 276.000000)">
                    <g id="arrow" transform="translate(87.000000, 1.000000)">
                        <mask id="mask-2" fill="white">
                            <use xlink:href="#path-1"></use>
                        </mask>
                        <use id="Mask" fill="#C823B0" xlink:href="#path-1"></use>
                    </g>
                </g>
            </g>
        </g>
    </g>
</svg>