<?xml version="1.0" encoding="UTF-8"?>
<svg width="19px" height="19px" viewBox="0 0 19 19" version="1.1" xmlns="http://www.w3.org/2000/svg" xmlns:xlink="http://www.w3.org/1999/xlink">
    <title>E7C40C3C-2BF6-4C07-88C3-A04A912F67CF</title>
    <g id="Settings" stroke="none" stroke-width="1" fill="none" fill-rule="evenodd">
        <g id="Calc-Settings-date-picker" transform="translate(-802.000000, -851.000000)" fill-rule="nonzero">
            <g id="Store-Details" transform="translate(172.000000, 611.000000)">
                <g id="date-field" transform="translate(376.000000, 228.000000)">
                    <g id="Group" transform="translate(254.000000, 12.000000)">
                        <path d="M17.51325,19 L1.48675,19 C0.667375,19 0,18.3332188 0,17.51325 L0,2.67484375 C0,1.854875 0.667375,1.1875 1.48734375,1.1875 L17.5126562,1.1875 C18.332625,1.1875 19,1.854875 19,2.67484375 L19,17.51325 C19,18.3332188 18.3332188,19 17.51325,19 Z M1.48734375,2.375 C1.32228125,2.375 1.1875,2.50978125 1.1875,2.67484375 L1.1875,17.51325 C1.1875,17.6783125 1.3216875,17.8125 1.48675,17.8125 L17.51325,17.8125 C17.6783125,17.8125 17.8125,17.6783125 17.8125,17.51325 L17.8125,2.67484375 C17.8125,2.50978125 17.6777188,2.375 17.5126562,2.375 L1.48734375,2.375 Z M18.40625,5.9375 L0.59375,5.9375 C0.266,5.9375 1.77635684e-15,5.6715 1.77635684e-15,5.34375 C1.77635684e-15,5.016 0.266,4.75 0.59375,4.75 L18.40625,4.75 C18.7345938,4.75 19,5.016 19,5.34375 C19,5.6715 18.7345938,5.9375 18.40625,5.9375 Z M3.5625,3.5625 C3.23475,3.5625 2.96875,3.2965 2.96875,2.96875 L2.96875,0.59375 C2.96875,0.266 3.23475,0 3.5625,0 C3.89025,0 4.15625,0.266 4.15625,0.59375 L4.15625,2.96875 C4.15625,3.2965 3.89025,3.5625 3.5625,3.5625 Z M15.4375,3.5625 C15.1091562,3.5625 14.84375,3.2965 14.84375,2.96875 L14.84375,0.59375 C14.84375,0.266 15.1091562,0 15.4375,0 C15.7658438,0 16.03125,0.266 16.03125,0.59375 L16.03125,2.96875 C16.03125,3.2965 15.7658438,3.5625 15.4375,3.5625 Z" id="Shape" fill="#C823B0"></path>
                        <circle id="Oval" fill="#000000" cx="3.5625" cy="10.6875" r="1"></circle>
                        <circle id="Oval" fill="#000000" cx="3.5625" cy="13.0625" r="1"></circle>
                        <circle id="Oval" fill="#000000" cx="3.5625" cy="15.4375" r="1"></circle>
                        <circle id="Oval" fill="#000000" cx="13.0625" cy="8.3125" r="1"></circle>
                        <circle id="Oval" fill="#000000" cx="13.0625" cy="10.6875" r="1"></circle>
                        <circle id="Oval" fill="#000000" cx="13.0625" cy="13.0625" r="1"></circle>
                        <circle id="Oval" fill="#000000" cx="13.0625" cy="15.4375" r="1"></circle>
                        <circle id="Oval" fill="#000000" cx="15.4375" cy="8.3125" r="1"></circle>
                        <circle id="Oval" fill="#000000" cx="15.4375" cy="10.6875" r="1"></circle>
                        <circle id="Oval" fill="#000000" cx="15.4375" cy="13.0625" r="1"></circle>
                        <circle id="Oval" fill="#000000" cx="8.3125" cy="8.3125" r="1"></circle>
                        <circle id="Oval" fill="#000000" cx="8.3125" cy="10.6875" r="1"></circle>
                        <circle id="Oval" fill="#000000" cx="8.3125" cy="13.0625" r="1"></circle>
                        <circle id="Oval" fill="#000000" cx="8.3125" cy="15.4375" r="1"></circle>
                        <circle id="Oval" fill="#000000" cx="5.9375" cy="8.3125" r="1"></circle>
                        <circle id="Oval" fill="#000000" cx="5.9375" cy="10.6875" r="1"></circle>
                        <circle id="Oval" fill="#000000" cx="5.9375" cy="13.0625" r="1"></circle>
                        <circle id="Oval" fill="#000000" cx="5.9375" cy="15.4375" r="1"></circle>
                        <circle id="Oval" fill="#000000" cx="10.6875" cy="8.3125" r="1"></circle>
                        <circle id="Oval" fill="#000000" cx="10.6875" cy="10.6875" r="1"></circle>
                        <circle id="Oval" fill="#000000" cx="10.6875" cy="13.0625" r="1"></circle>
                        <circle id="Oval" fill="#000000" cx="10.6875" cy="15.4375" r="1"></circle>
                    </g>
                </g>
            </g>
        </g>
    </g>
</svg>