<?xml version="1.0" encoding="UTF-8"?>
<svg width="45px" height="42px" viewBox="0 0 45 42" version="1.1" xmlns="http://www.w3.org/2000/svg" xmlns:xlink="http://www.w3.org/1999/xlink">
    <title>52008147-4F4B-4ECE-B9B6-7C1FF17866DF</title>
    <g id="Forecast" stroke="none" stroke-width="1" fill="none" fill-rule="evenodd">
        <g id="Calc-Forecast" transform="translate(-47.000000, -465.000000)" fill="#000000" fill-rule="nonzero">
            <g id="campaigns" transform="translate(34.000000, 465.000000)">
                <g id="campaigns-icon" transform="translate(13.000000, 0.000000)">
                    <path d="M44.6409574,35.2032852 C44.5078217,35.0057217 44.28316,34.8870168 44.0425532,34.8871054 L41.0505319,34.8871054 L41.0505319,32.2915998 L41.0505319,32.2915998 L41.0505319,8.46013911 C41.0505319,8.06919597 40.7290343,7.75227394 40.3324468,7.75227394 L28.5319149,7.75227394 C28.067895,6.59847615 27.4906879,5.49210251 26.8085106,4.44890315 C26.6840426,4.26485821 26.55,4.09025147 26.4207447,3.90620653 C25.4474033,2.51339567 24.2898442,1.25486994 22.9787234,0.163959334 C22.712471,-0.0546531115 22.3258268,-0.0546531115 22.0595745,0.163959334 C20.7893966,1.21994257 19.6630399,2.43337034 18.7085106,3.77407169 C18.5457447,4.00058855 18.3781915,4.2176672 18.2297872,4.44890315 C17.547557,5.49207238 16.9703472,6.59845124 16.506383,7.75227394 L4.66755319,7.75227394 C4.27096574,7.75227394 3.94946809,8.06919597 3.94946809,8.46013911 L3.94946809,32.2915998 L3.94946809,32.2915998 L3.94946809,34.8871054 L0.957446809,34.8871054 C0.717774436,34.8867083 0.493700719,35.0042102 0.360089491,35.2003534 C0.226478263,35.3964965 0.200945308,35.6454206 0.292021277,35.8639593 L1.6037234,38.9927234 C2.75265957,41.729802 5.49095745,41.729802 7.9037234,41.729802 L37.1058511,41.729802 C39.4994681,41.729802 42.2569149,41.729802 43.4058511,38.9927234 L44.7175532,35.8639593 C44.8050747,35.6448827 44.7763649,35.3972469 44.6409574,35.2032852 Z M29.9154255,15.0432852 L29.9154255,14.8073301 C29.9160292,13.3327251 29.7425214,11.8630619 29.3984043,10.4280043 C30.9351064,11.3718245 31.9547872,13.306656 31.9547872,15.5246335 L31.9547872,17.9502515 C31.4204193,16.8895883 30.7335512,15.9105062 29.9154255,15.0432852 L29.9154255,15.0432852 Z M28.4792553,19.5736223 L28.4792553,20.2295773 C28.4792553,20.3853076 28.4792553,20.5551953 28.4792553,20.7345211 C28.4792553,21.4140717 28.512766,22.3437346 28.1728723,22.6787908 C28.034204,22.8000317 27.8494025,22.8567455 27.6654255,22.8345211 L17.3154255,22.8345211 C16.8783982,22.8345289 16.5233774,22.4866691 16.5207447,22.0558694 L16.5207447,15.0102515 C16.5098518,13.130166 16.7940636,11.2597342 17.3632979,9.46530765 C17.4446809,9.21047619 17.5356383,8.95564473 17.6265957,8.70081327 C18.0404176,7.59967732 18.5648317,6.54206302 19.1920213,5.54373462 L25.8079787,5.54373462 C26.4353928,6.54194078 26.9598182,7.59957778 27.3734043,8.70081327 C27.4643617,8.95092563 27.5553191,9.20575709 27.6367021,9.46058855 L27.6367021,9.50777956 C27.7324468,9.80980203 27.8138298,10.1118245 27.8904255,10.4185661 C28.2326415,11.8679199 28.423529,13.347986 28.4601064,14.8356447 C28.4601064,14.896993 28.4601064,14.9583414 28.4601064,15.0196897 L28.4601064,15.3547459 C28.4572502,15.3908709 28.4572502,15.4271602 28.4601064,15.4632852 C28.5271277,16.8318245 28.5175532,18.2192402 28.5031915,19.5689032 L28.4792553,19.5736223 Z M23.6106383,28.1812627 L22.5,29.3751953 L21.3893617,28.1812627 C20.3766376,27.0960119 19.7469272,25.7171231 19.5941489,24.2502515 L20.4079787,24.2502515 C20.5160999,25.0294604 20.8043642,25.7737703 21.2505319,26.4257571 L21.887234,27.4828357 C22.0165882,27.697734 22.2512978,27.8294815 22.5047872,27.8294815 C22.7582767,27.8294815 22.9929863,27.697734 23.1223404,27.4828357 L23.7590426,26.4257571 L23.7590426,26.4257571 C24.2052103,25.7737703 24.4934746,25.0294604 24.6015957,24.2502515 L25.4154255,24.2502515 C25.2599773,25.7182577 24.6268486,27.0972767 23.6106383,28.1812627 L23.6106383,28.1812627 Z M22.5,25.7037346 L22.5,25.7367683 L22.5,25.7084537 C22.1954133,25.2696593 21.9822486,24.7756111 21.8728723,24.2549706 L23.1654255,24.2549706 C23.0438051,24.7767901 22.8175612,25.2693683 22.5,25.7037346 Z M15.4771277,11.0320492 C15.4771277,11.0933975 15.4531915,11.1500268 15.4388298,11.2113751 C15.2497956,12.181302 15.1377541,13.1642799 15.1037234,14.1513751 C15.1037234,14.1796897 15.1037234,14.2080043 15.1037234,14.2363189 C15.1037234,14.2646335 15.1037234,14.3684537 15.1037234,14.429802 C15.1037234,14.4911503 15.1037234,14.6799144 15.1037234,14.802611 L15.1037234,15.0385661 C14.2851787,15.9054549 13.5982664,16.8845999 13.0643617,17.9455324 L13.0643617,15.5246335 C13.0643617,13.3019369 14.0840426,11.3529481 15.6207447,10.4280043 C15.5537234,10.6356447 15.5154255,10.8291279 15.4771277,11.0320492 Z M20.8005319,3.3635099 L20.9106383,3.24081327 C21.1180851,3.00485821 21.3319149,2.77519529 21.5521277,2.5518245 L21.7053191,2.39609417 C21.9638298,2.14126271 22.2271277,1.88643124 22.5,1.64575709 C22.7728723,1.88643124 23.0361702,2.1176672 23.2946809,2.39137506 L23.4526596,2.5518245 C23.6696809,2.77519529 23.8819149,3.00328518 24.0893617,3.23609417 L24.2042553,3.3635099 C24.4196809,3.60890315 24.6255319,3.86845372 24.8218085,4.12800428 L20.1781915,4.12800428 C20.3792553,3.86845372 20.5851064,3.61362226 20.8005319,3.3635099 Z M5.3856383,32.999465 L33.7882979,32.999465 C34.1848853,32.999465 34.506383,32.6825429 34.506383,32.2915998 L34.506383,32.2915998 C34.506383,31.9006566 34.1848853,31.5837346 33.7882979,31.5837346 L9.2537234,31.5837346 L9.2537234,27.8603638 C9.2537234,27.4694207 8.93222575,27.1524987 8.5356383,27.1524987 C8.13905084,27.1524987 7.81755319,27.4694207 7.81755319,27.8603638 L7.81755319,31.5837346 L5.3856383,31.5837346 L5.3856383,9.16800428 L14.9601064,9.16800428 C12.9542553,10.3336223 11.6090426,12.7639593 11.6090426,15.5246335 L11.6090426,19.0120492 C11.590025,19.5820611 11.9734421,20.0892721 12.5329787,20.2342964 C12.6130548,20.2525733 12.694935,20.2620692 12.7771277,20.262611 C13.2198286,20.2573023 13.6193264,19.9996682 13.8015957,19.6019369 C14.1831574,18.819345 14.6115725,18.0598032 15.0845745,17.3273301 L15.0845745,22.0464312 C15.0872144,23.2591179 16.0852276,24.2408161 17.3154255,24.2408133 L18.1531915,24.2408133 C18.3089478,26.0635529 19.0752225,27.7834698 20.331383,29.129802 L21.9734043,30.8900268 C22.1094018,31.0360646 22.30129,31.1191938 22.5023936,31.1191938 C22.7034972,31.1191938 22.8953855,31.0360646 23.031383,30.8900268 L24.6734043,29.129802 C25.9295648,27.7834698 26.6958394,26.0635529 26.8515957,24.2408133 L27.6893617,24.2408133 C28.251497,24.261719 28.7979199,24.0554652 29.2021277,23.669802 C29.9585106,22.9100268 29.9345745,21.6877796 29.9154255,20.7062065 C29.9154255,20.541038 29.9154255,20.3853076 29.9154255,20.2342964 L29.9154255,19.5783414 C29.9154255,18.8515998 29.9154255,18.11542 29.9154255,17.3745211 C30.3862554,18.0920102 30.8146291,18.8357219 31.1984043,19.6019369 C31.379941,19.9981395 31.7771256,20.2554843 32.2180851,20.262611 C32.3002802,20.2621079 32.3821647,20.2526115 32.462234,20.2342964 C33.0217707,20.0892721 33.4051878,19.5820611 33.3861702,19.0120492 L33.3861702,15.5246335 C33.3861702,12.7639593 32.0505319,10.3336223 30.0351064,9.16800428 L39.6095745,9.16800428 L39.6095745,31.5837346 L36.6606383,31.5837346 C36.2640508,31.5837346 35.9425532,31.9006566 35.9425532,32.2915998 L35.9425532,32.2915998 C35.9425532,32.6825429 36.2640508,32.999465 36.6606383,32.999465 L39.6143617,32.999465 L39.6143617,34.8871054 L5.3856383,34.8871054 L5.3856383,32.999465 Z M28.3978723,36.3028357 L27.9191489,37.1286784 L17.0617021,37.1286784 L16.5829787,36.3028357 L28.3978723,36.3028357 Z M42.0654255,38.4547459 C41.337766,40.1913751 39.7005319,40.3140717 37.0914894,40.3140717 L7.8893617,40.3140717 C5.28031915,40.3140717 3.64308511,40.186656 2.91542553,38.4547459 L2.0106383,36.3028357 L14.9361702,36.3028357 L15.9797872,38.1904762 C16.1052722,38.4165586 16.3454857,38.5575509 16.6069149,38.5585661 L28.3356383,38.5585661 C28.5987834,38.5592741 28.841244,38.418041 28.9675532,38.1904762 L30.0111702,36.3028357 L42.9367021,36.3028357 L42.0654255,38.4547459 Z" id="Shape"></path>
                    <path d="M22.5,8.71025147 C20.5858046,8.71025147 19.0340426,10.2399285 19.0340426,12.1268807 C19.0340426,14.0138329 20.5858046,15.5435099 22.5,15.5435099 C24.4141954,15.5435099 25.9659574,14.0138329 25.9659574,12.1268807 C25.9633205,10.2410062 24.4131021,8.71285089 22.5,8.71025147 Z M22.5,14.1277796 C21.6790277,14.1277796 20.9388936,13.6402762 20.6247211,12.8925915 C20.3105486,12.1449069 20.4842086,11.2842846 21.0647237,10.7120315 C21.6452388,10.1397784 22.5182864,9.96859004 23.2767659,10.2782912 C24.0352455,10.5879923 24.5297872,11.3175926 24.5297872,12.1268807 C24.5297872,13.2319466 23.6210205,14.1277796 22.5,14.1277796 Z" id="Shape"></path>
                    <path d="M8.5356383,22.8345211 C8.13905084,22.8345211 7.81755319,23.1514432 7.81755319,23.5423863 L7.81755319,25.066656 C7.81755319,25.4575991 8.13905084,25.7745211 8.5356383,25.7745211 C8.93222575,25.7745211 9.2537234,25.4575991 9.2537234,25.066656 L9.2537234,23.5423863 C9.2537234,23.1514432 8.93222575,22.8345211 8.5356383,22.8345211 Z" id="Path"></path>
                </g>
            </g>
        </g>
    </g>
</svg>