<?xml version="1.0" encoding="UTF-8"?>
<svg width="46px" height="45px" viewBox="0 0 46 45" version="1.1" xmlns="http://www.w3.org/2000/svg" xmlns:xlink="http://www.w3.org/1999/xlink">
    <title>A3081317-B06D-43CB-818E-6B3465B7D877</title>
    <g id="Forecast" stroke="none" stroke-width="1" fill="none" fill-rule="evenodd">
        <g id="Calc-Forecast" transform="translate(-46.000000, -586.000000)" fill="#000000" fill-rule="nonzero">
            <g id="Connections" transform="translate(15.000000, 586.000000)">
                <path d="M41.4416599,20.4977151 C37.8602335,20.4977151 34.9569138,23.4051318 34.9569138,26.9916121 L34.9569138,35.2172149 C32.4997745,35.7074664 30.8035254,37.9692724 31.0183154,40.4690056 C31.2331054,42.9687389 33.2902565,44.9071225 35.7949085,44.9698271 C38.2995606,45.0325318 40.4508641,43.199508 40.7901183,40.7136454 C41.1293725,38.2277829 39.5481028,35.8839233 37.1184958,35.2713308 L37.1184958,26.9916121 C37.1184958,24.6006252 39.0540423,22.6623474 41.4416599,22.6623474 L52.9520844,22.6623474 L52.9520844,35.2713308 C50.5078446,35.8227673 48.8683999,38.1263057 49.1454283,40.6199581 C49.4224566,43.1136104 51.5273747,45 54.0328755,45 C56.5383763,45 58.6432944,43.1136104 58.9203227,40.6199581 C59.197351,38.1263057 57.5579063,35.8227673 55.1136665,35.2713308 L55.1136665,22.6623474 L66.6781306,22.6623474 C69.0657482,22.6623474 71.0012947,24.6006252 71.0012947,26.9916121 L71.0012947,35.2713308 C68.5570549,35.8227673 66.9176102,38.1263057 67.1946385,40.6199581 C67.4716669,43.1136104 69.576585,45 72.0820857,45 C74.5875865,45 76.6925046,43.1136104 76.9695329,40.6199581 C77.2465613,38.1263057 75.6071166,35.8227673 73.1628768,35.2713308 L73.1628768,26.9916121 C73.1628768,23.4051318 70.259557,20.4977151 66.6781306,20.4977151 L55.1136665,20.4977151 L55.1136665,9.72866924 C57.5579063,9.17723268 59.197351,6.87369425 58.9203227,4.38004192 C58.6432944,1.88638959 56.5383763,0 54.0328755,0 C51.5273747,0 49.4224566,1.88638959 49.1454283,4.38004192 C48.8683999,6.87369425 50.5078446,9.17723268 52.9520844,9.72866924 L52.9520844,20.4977151 L41.4416599,20.4977151 Z M38.9994225,40 C38.9994225,41.6568543 37.6564061,43 35.9997113,43 C34.3430165,43 33,41.6568543 33,40 C33,38.3431458 34.3430165,37 35.9997113,37 C36.8055807,36.9998451 37.5776198,37.3239776 38.1418966,37.899374 C38.7061733,38.4747704 39.0152239,39.2530315 38.9994225,40.0588236 L38.9994225,40 Z M56.9994225,40 C56.9994225,41.6568543 55.6564061,43 53.9997113,43 C52.3430165,43 51,41.6568543 51,40 C51,38.3431458 52.3430165,37 53.9997113,37 C54.8055807,36.9998451 55.5776198,37.3239776 56.1418966,37.899374 C56.7061733,38.4747704 57.0152239,39.2530315 56.9994225,40.0588236 L56.9994225,40 Z M74.9994225,40 C74.9994225,41.6568543 73.6564061,43 71.9997113,43 C70.3430165,43 69,41.6568543 69,40 C69,38.3431458 70.3430165,37 71.9997113,37 C72.8055807,36.9998451 73.5776198,37.3239776 74.1418966,37.899374 C74.7061733,38.4747704 75.0152239,39.2530315 74.9994225,40.0588236 L74.9994225,40 Z M51,5 C51,3.34314575 52.3431458,2 54,2 C55.6568542,2 57,3.34314575 57,5 C57,6.65685425 55.6568542,8 54,8 C53.2043505,8 52.4412888,7.68392948 51.8786797,7.12132034 C51.3160705,6.55871121 51,5.79564947 51,5 L51,5 Z" id="Shape"></path>
            </g>
        </g>
    </g>
</svg>