<?xml version="1.0" encoding="UTF-8"?>
<svg width="30px" height="31px" viewBox="0 0 30 31" version="1.1" xmlns="http://www.w3.org/2000/svg" xmlns:xlink="http://www.w3.org/1999/xlink">
    <title>16B4EEB6-F37D-400F-A1AD-288547A27ABB</title>
    <g id="Forecast" stroke="none" stroke-width="1" fill="none" fill-rule="evenodd">
        <g id="Calc-Forecast" transform="translate(-54.000000, -111.000000)" fill="#000000" fill-rule="nonzero">
            <g id="Dashboard" transform="translate(36.000000, 111.000000)">
                <path d="M45.3790395,8 C41.2424614,0.835236518 31.9835853,-1.58663898 24.7330101,2.5994826 C21.8892783,4.24131191 19.7677442,6.66800691 18.4933673,9.43264977 L20.2400051,10.1156839 C21.3597818,7.73561416 23.2050552,5.64671128 25.6705101,4.22328024 C32.0330261,0.549879874 40.1058801,2.66155061 43.7357864,8.94873266 C47.3657161,15.2359553 45.1580302,23.2830444 38.7955101,26.9564471 C36.3300552,28.3798781 33.5983521,28.9334397 30.9772863,28.7132005 L30.6954923,30.5673502 C33.7268849,30.8459477 36.8892783,30.222074 39.7330101,28.5802447 C46.9835853,24.3941231 49.5156177,15.1647635 45.3790395,8 Z M35.8461097,10.22731 L27.9505784,19.3143758 C27.3034222,20.4488229 27.6938909,21.9058391 28.8148597,22.5608441 C29.9358753,23.2157543 31.3756878,22.8206545 32.0228909,21.6862075 L35.8461097,10.22731 Z" id="Dash-icon"></path>
            </g>
        </g>
    </g>
</svg>