<?xml version="1.0" encoding="UTF-8"?>
<svg width="16px" height="16px" viewBox="0 0 16 16" version="1.1" xmlns="http://www.w3.org/2000/svg" xmlns:xlink="http://www.w3.org/1999/xlink">
    <title>B713E923-FB5F-4E9A-B57B-11B72195C226</title>
    <defs>
        <path d="M6.75,0 L9.25,0 C9.665625,0 10,0.334375 10,0.75 L10,6 L12.740625,6 C13.296875,6 13.575,6.671875 13.18125,7.065625 L8.428125,11.821875 C8.19375,12.05625 7.809375,12.05625 7.575,11.821875 L2.815625,7.065625 C2.421875,6.671875 2.7,6 3.25625,6 L6,6 L6,0.75 C6,0.334375 6.334375,0 6.75,0 Z M16,11.75 L16,15.25 C16,15.665625 15.665625,16 15.25,16 L0.75,16 C0.334375,16 0,15.665625 0,15.25 L0,11.75 C0,11.334375 0.334375,11 0.75,11 L5.334375,11 L6.865625,12.53125 C7.49375,13.159375 8.50625,13.159375 9.134375,12.53125 L10.665625,11 L15.25,11 C15.665625,11 16,11.334375 16,11.75 Z M12.125,14.5 C12.125,14.15625 11.84375,13.875 11.5,13.875 C11.15625,13.875 10.875,14.15625 10.875,14.5 C10.875,14.84375 11.15625,15.125 11.5,15.125 C11.84375,15.125 12.125,14.84375 12.125,14.5 Z M14.125,14.5 C14.125,14.15625 13.84375,13.875 13.5,13.875 C13.15625,13.875 12.875,14.15625 12.875,14.5 C12.875,14.84375 13.15625,15.125 13.5,15.125 C13.84375,15.125 14.125,14.84375 14.125,14.5 Z" id="path-1"></path>
    </defs>
    <g id="Forecast" stroke="none" stroke-width="1" fill="none" fill-rule="evenodd">
        <g id="Calc-Forecast" transform="translate(-1295.000000, -547.000000)">
            <g id="Forecast-Set-up" transform="translate(190.000000, 116.000000)">
                <g id="Download" transform="translate(724.000000, 421.000000)">
                    <g id="download-icon" transform="translate(381.000000, 10.000000)">
                        <mask id="mask-2" fill="white">
                            <use xlink:href="#path-1"></use>
                        </mask>
                        <g id="Mask"></g>
                        <g id="🎨-color" mask="url(#mask-2)" fill="#FFFFFF">
                            <rect id="Black" x="0" y="0" width="16" height="16"></rect>
                        </g>
                    </g>
                </g>
            </g>
        </g>
    </g>
</svg>