<?xml version="1.0" encoding="UTF-8"?>
<svg width="48px" height="36px" viewBox="0 0 48 36" version="1.1" xmlns="http://www.w3.org/2000/svg" xmlns:xlink="http://www.w3.org/1999/xlink">
    <title>9D0F5658-75C7-4DBB-8C83-D23DEAC02CBF</title>
    <g id="Forecast" stroke="none" stroke-width="1" fill="none" fill-rule="evenodd">
        <g id="Calc-Forecast" transform="translate(-46.000000, -348.000000)" fill="#000000" fill-rule="nonzero">
            <g id="Forecast" transform="translate(43.000000, 348.000000)">
                <path d="M18.8181835,0.194577313 C15.9514811,0.194577313 13.3636369,2.34383104 12.2727289,4.49308478 L4.09091045,20.6125254 C3.399141,21.9754209 3.00164264,23.6171284 2.99999273,24.9110328 C2.992485,30.837009 7.89333273,35.6573015 13.9090925,35.6573015 C19.9248535,35.6573015 24.8181807,30.837009 24.8181807,24.9110328 L24.8181807,23.2990925 L29.1818171,23.2990925 L29.1818171,24.9110328 C29.1818171,30.837009 34.0751498,35.6573015 40.090908,35.6573015 C46.1066662,35.6573015 51.0075153,30.837009 51.0000075,24.9110328 C50.9983625,23.6171284 50.6008571,21.9754209 49.9090898,20.6125254 L41.7272716,4.49308478 C40.636368,2.34383104 38.0485244,0.194577313 35.1818171,0.194577313 C31.7205098,0.194577313 29.1818171,2.8122609 29.1818171,6.64233851 L29.1818171,10.4035863 L24.8181807,10.4035863 L24.8181807,6.64233851 C24.8181807,2.8122609 22.2794935,0.194577313 18.8181835,0.194577313 Z M18.8181835,2.34383104 C21.337488,2.34383104 22.6363625,4.29857731 22.6363625,6.64233851 C21.2405662,5.27304896 19.2999764,4.49308478 17.1818198,4.49308478 C16.3055673,4.49308478 15.2427011,4.76485791 14.4545471,5.03039821 C15.4358002,3.48481612 17.1617738,2.34383104 18.8181835,2.34383104 Z M35.1818171,2.34383104 C36.8382316,2.34383104 38.5642025,3.48481612 39.5454535,5.03039821 C38.7573044,4.76485791 37.6944371,4.49308478 36.8181807,4.49308478 C34.700028,4.49308478 32.7594371,5.27304896 31.3636353,6.64233851 C31.3636353,4.29857731 32.6625153,2.34383104 35.1818171,2.34383104 Z M17.1818198,6.64233851 C20.0623353,6.64233851 22.3812807,8.72888776 22.6193171,11.4782131 L22.6363353,11.4782131 L22.6363353,18.4800358 C20.6447553,15.8643027 17.4766342,14.1647803 13.9090653,14.1647803 C12.2428631,14.1647803 10.9592962,14.5787803 9.54542891,15.2394072 C10.8769151,12.7024818 11.1874958,11.3959504 12.2727016,9.32890567 C13.3636107,7.71696537 15.3663365,6.64233851 17.1817925,6.64233851 L17.1818198,6.64233851 Z M36.8181807,6.64233851 C38.6336389,6.64233851 40.6363625,7.71696537 41.7272716,9.32890567 C42.8124807,11.3959504 43.1230625,12.7025355 44.4545444,15.2394072 C43.0406771,14.5787803 41.7571135,14.1647803 40.090908,14.1647803 C36.5233407,14.1647803 33.3552207,15.8643027 31.3636353,18.4800358 L31.3636353,11.4782131 L31.3806535,11.4782131 C31.6186953,8.72888776 33.9376407,6.64233851 36.8181535,6.64233851 L36.8181807,6.64233851 Z M24.8181807,12.55284 L29.1818171,12.55284 L29.1818171,21.1498388 L24.8181807,21.1498388 L24.8181807,12.55284 Z M13.9090925,16.2972161 C18.7449775,16.2972161 22.653408,20.1473194 22.653408,24.9110328 C22.653408,29.6746925 18.7449775,33.5248119 13.9090925,33.5248119 C9.07320764,33.5248119 5.16477409,29.6746925 5.16477409,24.9110328 C5.16477409,20.1473194 9.07320764,16.2972161 13.9090925,16.2972161 Z M40.090908,16.2972161 C44.9267935,16.2972161 48.8352262,20.1473194 48.8352262,24.9110328 C48.8352262,29.6746925 44.9267935,33.5248119 40.090908,33.5248119 C35.255028,33.5248119 31.3465898,29.6746925 31.3465898,24.9110328 C31.3465898,20.1473194 35.255028,16.2972161 40.090908,16.2972161 Z M13.9090925,18.4632716 C10.3070596,18.4632716 7.363638,21.3627224 7.363638,24.9110328 C7.363638,28.4592896 10.3070596,31.358794 13.9090925,31.358794 C17.5111255,31.358794 20.4545444,28.4592896 20.4545444,24.9110328 C20.4545444,21.3627224 17.5111255,18.4632716 13.9090925,18.4632716 L13.9090925,18.4632716 Z M40.090908,18.4632716 C36.4888789,18.4632716 33.5454535,21.3627224 33.5454535,24.9110328 C33.5454535,28.4592896 36.4888789,31.358794 40.090908,31.358794 C43.6929425,31.358794 46.6363625,28.4592896 46.6363625,24.9110328 C46.6363625,21.3627224 43.6929425,18.4632716 40.090908,18.4632716 L40.090908,18.4632716 Z M13.9090925,20.6125254 C16.3319836,20.6125254 18.2727289,22.5242866 18.2727289,24.9110328 C18.2727289,27.2977254 16.3319836,29.2095403 13.9090925,29.2095403 C11.4862015,29.2095403 9.54545618,27.2977254 9.54545618,24.9110328 C9.54545618,22.5242866 11.4862015,20.6125254 13.9090925,20.6125254 Z M40.090908,20.6125254 C42.5138007,20.6125254 44.4545444,22.5242866 44.4545444,24.9110328 C44.4545444,27.2977254 42.5138007,29.2095403 40.090908,29.2095403 C37.6680207,29.2095403 35.7272716,27.2977254 35.7272716,24.9110328 C35.7272716,22.5242866 37.6680207,20.6125254 40.090908,20.6125254 Z" id="Forecast-icon"></path>
            </g>
        </g>
    </g>
</svg>