<?xml version="1.0" encoding="UTF-8"?>
<svg width="40px" height="40px" viewBox="0 0 40 40" version="1.1" xmlns="http://www.w3.org/2000/svg" xmlns:xlink="http://www.w3.org/1999/xlink">
    <title>0C26052C-CEA8-4F45-A241-C157066CA9BF</title>
    <g id="Forecast" stroke="none" stroke-width="1" fill="none" fill-rule="evenodd">
        <g id="Calc-Forecast" transform="translate(-51.000000, -223.000000)" fill="#202020" fill-rule="nonzero">
            <g id="labratory" transform="translate(34.000000, 223.000000)">
                <g id="lab-icon" transform="translate(17.000000, 0.000000)">
                    <path d="M36.6666667,12.8605201 L35.3333333,12.8605201 L35.3333333,16.1702128 L32.6666667,16.1702128 L32.6666667,10.212766 L26,10.212766 L26,16.1702128 L23.3333333,16.1702128 L23.3333333,10.212766 L16.6666667,10.212766 L16.6666667,16.1702128 L14,16.1702128 L14,10.212766 L7.33333333,10.212766 L7.33333333,16.1702128 L4.66666667,16.1702128 L4.66666667,12.8605201 L3.33333333,12.8605201 L3.33333333,16.1702128 L0,16.1702128 L0,17.4940898 L3.33333333,17.4940898 L3.33333333,36.0283688 L0,36.0283688 L0,40 L40,40 L40,36.0283688 L36.6666667,36.0283688 L36.6666667,17.4940898 L40,17.4940898 L40,16.1702128 L36.6666667,16.1702128 L36.6666667,12.8605201 Z M27.3333333,11.536643 L31.3333333,11.536643 L31.3333333,16.1702128 L27.3333333,16.1702128 L27.3333333,11.536643 Z M27.3333333,21.465721 L31.3333333,21.465721 L31.3333333,32.7186761 C31.3333333,33.8154118 30.4379028,34.7044917 29.3333333,34.7044917 C28.2287638,34.7044917 27.3333333,33.8154118 27.3333333,32.7186761 L27.3333333,21.465721 Z M31.3333333,20.141844 L27.3333333,20.141844 L27.3333333,17.4940898 L31.3333333,17.4940898 L31.3333333,20.141844 Z M18,11.536643 L22,11.536643 L22,16.1702128 L18,16.1702128 L18,11.536643 Z M18,21.465721 L22,21.465721 L22,32.7186761 C22,33.8154118 21.1045695,34.7044917 20,34.7044917 C18.8954305,34.7044917 18,33.8154118 18,32.7186761 L18,21.465721 Z M22,20.141844 L18,20.141844 L18,17.4940898 L22,17.4940898 L22,20.141844 Z M8.66666667,11.536643 L12.6666667,11.536643 L12.6666667,16.1702128 L8.66666667,16.1702128 L8.66666667,11.536643 Z M8.66666667,21.465721 L12.6666667,21.465721 L12.6666667,32.7186761 C12.6666667,33.8154118 11.7712362,34.7044917 10.6666667,34.7044917 C9.56209717,34.7044917 8.66666667,33.8154118 8.66666667,32.7186761 L8.66666667,21.465721 Z M12.6666667,20.141844 L8.66666667,20.141844 L8.66666667,17.4940898 L12.6666667,17.4940898 L12.6666667,20.141844 Z M38.6666667,37.3522459 L38.6666667,38.6761229 L1.33333333,38.6761229 L1.33333333,37.3522459 L38.6666667,37.3522459 Z M35.3333333,36.0283688 L4.66666667,36.0283688 L4.66666667,17.4940898 L7.33333333,17.4940898 L7.33333333,32.7186761 C7.33333333,34.5465689 8.8257175,36.0283688 10.6666667,36.0283688 C12.5076158,36.0283688 14,34.5465689 14,32.7186761 L14,17.4940898 L16.6666667,17.4940898 L16.6666667,32.7186761 C16.6666667,34.5465689 18.1590509,36.0283688 20,36.0283688 C21.8409491,36.0283688 23.3333333,34.5465689 23.3333333,32.7186761 L23.3333333,17.4940898 L26,17.4940898 L26,32.7186761 C26,34.5465689 27.4923842,36.0283688 29.3333333,36.0283688 C31.1742825,36.0283688 32.6666667,34.5465689 32.6666667,32.7186761 L32.6666667,17.4940898 L35.3333333,17.4940898 L35.3333333,36.0283688 Z" id="Shape"></path>
                    <path d="M15.5121083,4.25531915 L37.6982592,4.25531915 C38.9694755,4.25531915 40,3.3027335 40,2.12765957 C40,0.952585651 38.9694755,-8.70414851e-14 37.6982592,-8.70414851e-14 L15.5121083,-8.70414851e-14 L12.8815474,1.21580547 L11.0638298,1.21580547 L11.0638298,3.03951368 L12.8815474,3.03951368 L15.5121083,4.25531915 Z M38.6847195,2.12765957 C38.6847195,2.63126269 38.2430662,3.03951368 37.6982592,3.03951368 L33.0382205,3.03951368 L31.0652998,1.21580547 L37.6982592,1.21580547 C37.9598847,1.21580547 38.2107948,1.31187554 38.395792,1.48288135 C38.5807892,1.65388717 38.6847195,1.88582083 38.6847195,2.12765957 Z M15.8225145,1.21580547 L29.2054932,1.21580547 L31.1784139,3.03951368 L15.8225145,3.03951368 L13.8495938,2.12765957 L15.8225145,1.21580547 Z" id="Shape"></path>
                    <rect id="Rectangle" x="10.212766" y="4.25531915" width="1.70212766" height="1.70212766"></rect>
                    <rect id="Rectangle" x="10.212766" y="6.80851064" width="1.70212766" height="1.70212766"></rect>
                </g>
            </g>
        </g>
    </g>
</svg>