<?xml version="1.0" encoding="UTF-8"?>
<svg width="24px" height="20px" viewBox="0 0 24 20" version="1.1" xmlns="http://www.w3.org/2000/svg" xmlns:xlink="http://www.w3.org/1999/xlink">
    <title>A462EC50-3AE2-4A50-BEBE-F893AC4F1201</title>
    <defs>
        <path d="M16.475,16.8666667 C14.6666667,17.7666667 12.6458333,18.3 10.6083333,18.3 C7.18333333,18.3 4.3125,16.6291667 4.3125,16.6291667 C3.64166667,16.6291667 2.8375,19.3333333 1.675,19.3333333 C0.55,19.3333333 0,18.3333333 0,17.7291667 C0,16.35 2.65,15.275 2.65,14.5083333 C2.65,14.5083333 2.12916667,13.625 2.12916667,12.0416667 C2.12916667,7.825 5.51666667,4.81666667 9.32083333,3.57083333 C12.0666667,2.67083333 17.9041667,3.71666667 19.7666667,1.96666667 C20.5041667,1.29166667 20.8666667,0.666666667 21.9916667,0.666666667 C23.5041667,0.666666667 24,4.55 24,5.67916667 C24,10.3 21.7291667,14.2833333 16.475,16.8666667 Z M5.87916667,13.7166667 C8.525,9.97083333 11.9,8.35 16.6166667,8.71666667 C16.9833333,8.74583333 17.3041667,8.47083333 17.3333333,8.10416667 C17.3625,7.7375 17.0875,7.41666667 16.7208333,7.3875 C11.5541667,6.9875 7.725,8.8 4.79166667,12.95 C4.57916667,13.25 4.65,13.6666667 4.95,13.8791667 C5.25,14.0916667 5.66666667,14.0208333 5.87916667,13.7166667 L5.87916667,13.7166667 Z" id="path-1"></path>
    </defs>
    <g id="Forecast" stroke="none" stroke-width="1" fill="none" fill-rule="evenodd">
        <g id="Calc-Forecast" transform="translate(-708.000000, -1452.000000)">
            <g id="Suggested-Campaigns" transform="translate(190.000000, 1372.000000)">
                <g id="Campaign-Card2" transform="translate(306.000000, 60.000000)">
                    <g id="Solid/leaf-Copy" transform="translate(212.000000, 20.000000)">
                        <mask id="mask-2" fill="white">
                            <use xlink:href="#path-1"></use>
                        </mask>
                        <g id="Mask"></g>
                        <g id="🎨-color" mask="url(#mask-2)" fill="#24A148">
                            <g transform="translate(0.000000, -2.000000)" id="Black">
                                <rect x="0" y="0" width="24" height="24"></rect>
                            </g>
                        </g>
                    </g>
                </g>
            </g>
        </g>
    </g>
</svg>