<?xml version="1.0" encoding="UTF-8"?>
<svg width="25px" height="35px" viewBox="0 0 25 35" version="1.1" xmlns="http://www.w3.org/2000/svg" xmlns:xlink="http://www.w3.org/1999/xlink">
    <title>6923109F-CB70-47BD-BDB0-8025FF839FB6</title>
    <defs>
        <path d="M17.96875,29.2578125 L17.96875,31.171875 C17.96875,31.8861621 17.5121094,32.4935352 16.875,32.7187793 L16.875,33.359375 C16.875,34.2654785 16.1404785,35 15.234375,35 L9.765625,35 C8.85952148,35 8.125,34.2654785 8.125,33.359375 L8.125,32.7187793 C7.48789063,32.4935352 7.03125,31.8861621 7.03125,31.171875 L7.03125,29.2578125 C7.03125,28.8047949 7.39854492,28.4375 7.8515625,28.4375 L17.1484375,28.4375 C17.6014551,28.4375 17.96875,28.8047949 17.96875,29.2578125 Z M8.125,12.03125 C8.125,9.61884766 10.0875977,7.65625 12.5,7.65625 C13.1040918,7.65625 13.59375,7.16652344 13.59375,6.5625 C13.59375,5.95847656 13.1040918,5.46875 12.5,5.46875 C8.88139648,5.46875 5.9375,8.41264648 5.9375,12.03125 C5.9375,12.6352734 6.42722656,13.125 7.03125,13.125 C7.63527344,13.125 8.125,12.6352734 8.125,12.03125 Z M12.5,3.28125 C17.335332,3.28125 21.25,7.19509766 21.25,12.03125 C21.25,17.3360742 18.6945215,16.1654199 15.7142578,22.96875 L9.28574219,22.96875 C6.30103516,16.1553711 3.75,17.3543262 3.75,12.03125 C3.75,7.19584961 7.66384766,3.28125 12.5,3.28125 L12.5,3.28125 Z M12.5,0 C5.85581055,0 0.46875,5.38692383 0.46875,12.03125 C0.46875,18.9855176 4.00272461,18.2889355 6.65636719,25.2023242 C6.89904297,25.8345801 7.50880859,26.25 8.18597656,26.25 L16.8139551,26.25 C17.491123,26.25 18.1008887,25.8345117 18.3435645,25.2023242 C20.9972754,18.2889355 24.53125,18.9855176 24.53125,12.03125 C24.53125,5.38692383 19.1441895,0 12.5,0 Z" id="path-1"></path>
    </defs>
    <g id="Profile-Builder" stroke="none" stroke-width="1" fill="none" fill-rule="evenodd">
        <g id="Calc-Profile-Builder" transform="translate(-1053.000000, -717.000000)">
            <g id="Protip-" transform="translate(1009.000000, 675.000000)">
                <g id="Regular/lightbulb" transform="translate(44.000000, 42.000000)">
                    <mask id="mask-2" fill="white">
                        <use xlink:href="#path-1"></use>
                    </mask>
                    <use id="Mask" fill="#000000" fill-rule="nonzero" xlink:href="#path-1"></use>
                    <g id="Color" mask="url(#mask-2)" fill="#C823B0">
                        <g transform="translate(-5.000000, 0.000000)" id="Purple">
                            <rect x="0" y="0" width="35" height="35"></rect>
                        </g>
                    </g>
                </g>
            </g>
        </g>
    </g>
</svg>