<?xml version="1.0" encoding="UTF-8"?>
<svg width="82px" height="39px" viewBox="0 0 82 39" version="1.1" xmlns="http://www.w3.org/2000/svg" xmlns:xlink="http://www.w3.org/1999/xlink">
    <title>835D90BD-62D4-44CD-92F6-73F77A78E498</title>
    <defs>
        <linearGradient x1="50%" y1="0%" x2="-12.4531897%" y2="100%" id="linearGradient-1">
            <stop stop-color="#C823B0" offset="0%"></stop>
            <stop stop-color="#8F007A" offset="100%"></stop>
        </linearGradient>
        <linearGradient x1="50%" y1="0%" x2="-18.4742657%" y2="100%" id="linearGradient-2">
            <stop stop-color="#C823B0" offset="0%"></stop>
            <stop stop-color="#8F007A" offset="100%"></stop>
        </linearGradient>
        <linearGradient x1="50%" y1="0%" x2="-10.281073%" y2="100%" id="linearGradient-3">
            <stop stop-color="#C823B0" offset="0%"></stop>
            <stop stop-color="#8F007A" offset="100%"></stop>
        </linearGradient>
        <polygon id="path-4" points="0.235569231 0.460981515 15.7815385 0.460981515 15.7815385 18.6947967 0.235569231 18.6947967"></polygon>
        <linearGradient x1="50%" y1="0%" x2="-5.45923982%" y2="100%" id="linearGradient-6">
            <stop stop-color="#C823B0" offset="0%"></stop>
            <stop stop-color="#8F007A" offset="100%"></stop>
        </linearGradient>
        <polygon id="path-7" points="0.296225 0.317596193 16.5468637 0.317596193 16.5468637 13 0.296225 13"></polygon>
        <linearGradient x1="50%" y1="19.5467938%" x2="-26.293233%" y2="80.4532062%" id="linearGradient-9">
            <stop stop-color="#C823B0" offset="0%"></stop>
            <stop stop-color="#8F007A" offset="100%"></stop>
        </linearGradient>
        <polygon id="path-10" points="0 39 82 39 82 0 0 0"></polygon>
        <linearGradient x1="50%" y1="0%" x2="45.7761532%" y2="100%" id="linearGradient-12">
            <stop stop-color="#C823B0" offset="0%"></stop>
            <stop stop-color="#8F007A" offset="100%"></stop>
        </linearGradient>
        <linearGradient x1="50%" y1="0%" x2="-26.293233%" y2="100%" id="linearGradient-13">
            <stop stop-color="#C823B0" offset="0%"></stop>
            <stop stop-color="#8F007A" offset="100%"></stop>
        </linearGradient>
    </defs>
    <g id="Forecast" stroke="none" stroke-width="1" fill="none" fill-rule="evenodd">
        <g id="Calc-Forecast" transform="translate(-29.000000, -30.000000)">
            <g id="LOGO" transform="translate(29.000000, 30.000000)">
                <path d="M51.0795471,16.3075459 C51.0764544,13.6823081 48.9455335,11.5104629 46.4018973,11.5383639 C43.8780319,11.566265 41.7872704,13.7171845 41.7773506,16.2942295 C41.7674996,18.912492 43.8885351,21.1027266 46.4297,21.0970307 C49.0036103,21.0913125 51.0826328,18.9492707 51.0795471,16.3075459 M56,5 C55.2233785,6.51426758 54.5357256,7.90868736 53.7930851,9.27140136 C53.5484215,9.71972095 53.5947593,9.99048823 53.8894677,10.4020291 C56.1816442,13.5986049 56.5708817,17.0659479 54.8637972,20.6138236 C53.1357062,24.2054532 50.1577304,26.0006339 46.2678266,26 C41.462288,25.9993657 37.3314277,21.9708306 37.0218912,17.1223842 C36.6888769,11.9086873 40.1907788,7.44007607 45.1032033,6.7247939 C48.6909846,6.20228281 52.2670269,5.59353202 56,5" id="Fill-1" fill="url(#linearGradient-1)"></path>
                <path d="M31.4454418,15.6818555 C31.4348793,13.6241851 30.5364504,11.9965134 29.080076,11.2123981 C26.9675876,10.0741661 24.406506,10.8190757 23.2378028,12.910893 C21.943593,15.2265627 22.6450634,18.3927445 24.7650077,19.7023436 C26.1928014,20.5851057 27.6783778,20.6274732 29.1322669,19.7984609 C30.7682028,18.8657431 31.4081625,17.3367182 31.4454418,15.6818555 M18,15.6963995 C17.9733573,8.2959949 25.175079,3.73674366 31.3808245,7.15523357 C34.7521075,9.01181632 36.0606077,12.1343659 35.9978544,15.9158253 C35.9245386,20.2790478 32.9105146,23.9416252 28.7221956,24.8205932 C23.5956832,25.8968547 18.4896744,21.997778 18.0721472,16.687926 C18.0429452,16.3116771 18.0174711,15.9354282 18,15.6963995" id="Fill-3" fill="url(#linearGradient-2)"></path>
                <path d="M4.53516628,25 L0,25 L0,7.48084624 C1.47602044,6.9715359 1.69656793,8.47889503 2.59967189,8.99880302 C2.75177361,8.88970962 2.93809822,8.75007006 3.1307604,8.61853459 C5.79190674,6.80696071 8.63113884,6.44913434 11.5375492,7.88605031 C14.4382557,9.31984932 15.9275851,11.743593 15.9751169,14.9415882 C16.0239162,18.2574043 15.9858907,21.5744671 15.9858907,24.9607264 L11.4367818,24.9607264 C11.4234729,24.682694 11.3955876,24.3791027 11.3955876,24.0748879 C11.391785,21.1798607 11.4025589,18.2854569 11.3898838,15.3910531 C11.3816449,13.5857131 10.5577606,12.3127489 9.11279428,11.8021918 C6.89591172,11.0192128 4.56241783,12.6244444 4.54150385,14.9877192 C4.51488605,18.0155286 4.53516628,21.0427147 4.53516628,24.0705242 L4.53516628,25 Z" id="Fill-5" fill="url(#linearGradient-3)"></path>
                <g id="Group-9" transform="translate(66.000000, 6.000000)">
                    <mask id="mask-5" fill="white">
                        <use xlink:href="#path-4"></use>
                    </mask>
                    <g id="Clip-8"></g>
                    <path d="M15.6909538,18.6947967 L11.2460308,18.6947967 L11.2460308,17.7941967 C11.2460308,14.74533 11.2503385,11.6951967 11.2448,8.64569667 C11.2411077,6.64436333 9.85403077,5.12943 8.01833846,5.10473 C6.12726154,5.07939667 4.64787692,6.55063 4.62387692,8.58553 C4.58756923,11.63503 4.61341538,14.68453 4.61218462,17.73403 L4.61218462,18.6732633 L0.235569231,18.6732633 L0.235569231,0.89813 C1.66326154,0.40983 1.88049231,1.92919667 2.7568,2.45739667 C3.98203077,1.42316333 5.39187692,0.72333 7.02633846,0.52003 C11.5389538,-0.04237 15.6208,3.48086333 15.7395692,8.17703 C15.8251077,11.5748633 15.7543385,14.97713 15.7512615,18.3774967 C15.7512615,18.45413 15.7229538,18.5313967 15.6909538,18.6947967" id="Fill-7" fill="url(#linearGradient-6)" mask="url(#mask-5)"></path>
                </g>
                <g id="Group-12" transform="translate(40.000000, 26.000000)">
                    <mask id="mask-8" fill="white">
                        <use xlink:href="#path-7"></use>
                    </mask>
                    <g id="Clip-11"></g>
                    <path d="M1.41276071,8.84111429 C3.63368929,8.48020952 5.71679643,8.14097143 7.80051071,7.80297143 C9.10040357,7.59187619 10.4021179,7.39068571 11.7001893,7.17030476 C12.5890464,7.01987619 12.9679036,6.4726381 12.808225,5.61401905 C12.6576536,4.8061619 12.1488679,4.45454286 11.2630464,4.6254 C8.70211786,5.1206381 6.14361786,5.62454286 3.59118929,6.16249524 C2.999225,6.28692381 2.65983214,6.18230476 2.35565357,5.60597143 C1.73758214,4.43535238 1.02843929,3.31301905 0.296225,2.06811429 C1.89058214,1.80501905 3.35804643,1.5586381 4.82733214,1.3221619 C6.611725,1.03554286 8.41433214,0.836209524 10.1792964,0.457352381 C14.0121893,-0.365980952 16.3982607,2.58006667 16.539725,5.83997143 C16.6702607,8.8504 15.0036536,10.9074952 12.111225,11.4473048 C9.59886786,11.9165429 7.09440357,12.4340667 4.592975,12.9602571 C4.087225,13.0667333 3.80126071,12.9751143 3.53776071,12.4916381 C2.88811786,11.2981143 2.174725,10.1398762 1.41276071,8.84111429" id="Fill-10" fill="url(#linearGradient-9)" mask="url(#mask-8)"></path>
                </g>
                <mask id="mask-11" fill="white">
                    <use xlink:href="#path-10"></use>
                </mask>
                <g id="Clip-14"></g>
                <polygon id="Fill-13" fill="url(#linearGradient-12)" mask="url(#mask-11)" points="59 25 63 25 63 8 59 8"></polygon>
                <polygon id="Fill-15" fill="url(#linearGradient-13)" mask="url(#mask-11)" points="58 4 62 4 62 0 58 0"></polygon>
            </g>
        </g>
    </g>
</svg>