<?xml version="1.0" encoding="UTF-8"?>
<svg width="133px" height="64px" viewBox="0 0 133 64" version="1.1" xmlns="http://www.w3.org/2000/svg" xmlns:xlink="http://www.w3.org/1999/xlink">
    <title>C96C0B9A-1FC7-4027-AE99-9F217082AB93</title>
    <defs>
        <polygon id="path-1" points="0.3828 0.72786555 25.645 0.72786555 25.645 29.5181 0.3828 29.5181"></polygon>
        <polygon id="path-3" points="0.4879 0.513040004 27.2536579 0.513040004 27.2536579 21 0.4879 21"></polygon>
        <polygon id="path-5" points="0 62.5772 132.645 62.5772 132.645 0.0002 0 0.0002"></polygon>
    </defs>
    <g id="Signup-Login-PassReset" stroke="none" stroke-width="1" fill="none" fill-rule="evenodd">
        <g id="2-Calc-HiFi-Log-In-Copy" transform="translate(-654.000000, -48.000000)">
            <g id="LOGO" transform="translate(654.000000, 48.000000)">
                <path d="M83.3176056,25.7809 C83.3126,21.6409 79.8636,18.2159 75.7466,18.2599 C71.6616,18.3039 68.2776,21.6959 68.2615443,25.7599 C68.2456,29.8889 71.6786,33.3429 75.7916,33.3339175 C79.9576,33.3249 83.3226,29.9469 83.3176056,25.7809 M91.2816,7.9489 C90.0246,10.3369 88.9116,12.5359 87.7096,14.6849 C87.3136,15.3919 87.3886,15.8189 87.8656,16.4679 C91.5756,21.5089 92.2056,26.9769 89.4426,32.5719 C86.6456,38.2359 81.8256,41.0669 75.5296,41.0659003 C67.7516,41.0649 61.0656,34.7119 60.5646,27.0659 C60.0256,18.8439 65.6936,11.7969 73.6446,10.6689 C79.4516,9.8449 85.2396,8.8849 91.2816,7.9489" id="Fill-1" fill="#FFFFFF"></path>
                <path d="M50.3577,26.0211 C50.3407,22.7671 48.8947,20.1931 46.5507,18.9531 C43.1507,17.1531 39.0287,18.3311 37.1477,21.6391 C35.0647,25.3011 36.1937,30.3081 39.6057,32.3791 C41.9037,33.7751 44.2947,33.8421 46.6347,32.5311 C49.2677,31.0561 50.2977,28.6381 50.3577,26.0211 M28.7175807,26.0441 C28.6747,14.3411 40.2657,7.1311 50.2537,12.5371 C55.6797,15.4731 57.7857,20.4111 57.6847,26.3911 C57.5667,33.2911 52.7157,39.0831 45.9747,40.4731 C37.7237,42.1751 29.5057,36.0091 28.8337,27.6121 C28.7867,27.0171 28.7457,26.4221 28.7175807,26.0441" id="Fill-3" fill="#FFFFFF"></path>
                <path d="M7.156,40.1061 L0,40.1061 L0,12.0031 C2.329,11.1861 2.677,13.6041 4.102,14.4381 C4.342,14.2631 4.636,14.0391 4.94,13.8281 C9.139,10.9221 13.619,10.3481 18.205,12.6531 C22.782,14.9531 25.132,18.8411 25.207,23.9711 C25.284,29.2901 25.224,34.6111 25.224,40.0431 L18.046,40.0431 C18.025,39.5971 17.981,39.1101 17.981,38.6221 C17.975,33.9781 17.992,29.3351 17.972,24.6921 C17.959,21.7961 16.659,19.7541 14.379,18.9351 C10.881,17.6791 7.199,20.2541 7.166,24.0451 C7.124,28.9021 7.156,33.7581 7.156,38.6151 L7.156,40.1061 Z" id="Fill-5" fill="#FFFFFF"></path>
                <g id="Group-9" transform="translate(107.000000, 10.577200)">
                    <mask id="mask-2" fill="white">
                        <use xlink:href="#path-1"></use>
                    </mask>
                    <g id="Clip-8"></g>
                    <path d="M25.4978,29.5181 L18.2748,29.5181 L18.2748,28.0961 C18.2748,23.2821 18.2818,18.4661 18.2728,13.6511 C18.2668,10.4911 16.0128,8.0991 13.0298,8.0601 C9.9568,8.0201 7.5528,10.3431 7.5138,13.5561 C7.4548,18.3711 7.4968,23.1861 7.4948,28.0011 L7.4948,29.4841 L0.3828,29.4841 L0.3828,1.4181 C2.7028,0.6471 3.0558,3.0461 4.4798,3.8801 C6.4708,2.2471 8.7618,1.1421 11.4178,0.8211 C18.7508,-0.0669 25.3838,5.4961 25.5768,12.9111 C25.7158,18.2761 25.6008,23.6481 25.5958,29.0171 C25.5958,29.1381 25.5498,29.2601 25.4978,29.5181" id="Fill-7" fill="#FFFFFF" mask="url(#mask-2)"></path>
                </g>
                <g id="Group-12" transform="translate(65.000000, 41.577200)">
                    <mask id="mask-4" fill="white">
                        <use xlink:href="#path-3"></use>
                    </mask>
                    <g id="Clip-11"></g>
                    <path d="M2.3269,14.2818 C5.9849,13.6988 9.4159,13.1508 12.8479,12.6048 C14.9889,12.2638 17.1329,11.9388 19.2709,11.5828 C20.7349,11.3398 21.3589,10.4558 21.0959,9.0688 C20.8479,7.7638 20.0099,7.1958 18.5509,7.4718 C14.3329,8.2718 10.1189,9.0858 5.9149,9.9548 C4.9399,10.1558 4.3809,9.9868 3.8799,9.0558 C2.8619,7.1648 1.6939,5.3518 0.4879,3.3408 C3.1139,2.9158 5.5309,2.5178 7.9509,2.1358 C10.8899,1.6728 13.8589,1.3508 16.7659,0.7388 C23.0789,-0.5912 27.0089,4.1678 27.2419,9.4338 C27.4569,14.2968 24.7119,17.6198 19.9479,18.4918 C15.8099,19.2498 11.6849,20.0858 7.5649,20.9358 C6.7319,21.1078 6.2609,20.9598 5.8269,20.1788 C4.7569,18.2508 3.5819,16.3798 2.3269,14.2818" id="Fill-10" fill="#FFFFFF" mask="url(#mask-4)"></path>
                </g>
                <mask id="mask-6" fill="white">
                    <use xlink:href="#path-5"></use>
                </mask>
                <g id="Clip-14"></g>
                <polygon id="Fill-13" fill="#FFFFFF" mask="url(#mask-6)" points="94.595 40.0552 101.725 40.0552 101.725 11.9362 94.595 11.9362"></polygon>
                <polygon id="Fill-15" fill="#FFFFFF" mask="url(#mask-6)" points="94.66 6.5332 101.103 6.5332 101.103 -0.0008 94.66 -0.0008"></polygon>
            </g>
        </g>
    </g>
</svg>