<?xml version="1.0" encoding="UTF-8"?>
<svg width="18px" height="18px" viewBox="0 0 18 18" version="1.1" xmlns="http://www.w3.org/2000/svg" xmlns:xlink="http://www.w3.org/1999/xlink">
    <title>9E68405B-12A9-4219-9706-1A0217399746</title>
    <defs>
        <path d="M18,10.5348214 L18,7.46517857 C18,6.93080357 17.5700893,6.50089286 17.0357143,6.50089286 L11.4991071,6.50089286 L11.4991071,0.964285714 C11.4991071,0.429910714 11.0691964,0 10.5348214,0 L7.46517857,0 C6.93080357,0 6.50089286,0.429910714 6.50089286,0.964285714 L6.50089286,6.50089286 L0.964285714,6.50089286 C0.429910714,6.50089286 0,6.93080357 0,7.46517857 L0,10.5348214 C0,11.0691964 0.429910714,11.4991071 0.964285714,11.4991071 L6.50089286,11.4991071 L6.50089286,17.0357143 C6.50089286,17.5700893 6.93080357,18 7.46517857,18 L10.5348214,18 C11.0691964,18 11.4991071,17.5700893 11.4991071,17.0357143 L11.4991071,11.4991071 L17.0357143,11.4991071 C17.5700893,11.4991071 18,11.0691964 18,10.5348214 Z" id="path-1"></path>
    </defs>
    <g id="Settings" stroke="none" stroke-width="1" fill="none" fill-rule="evenodd">
        <g id="Calc-Settings" transform="translate(-876.000000, -1371.000000)">
            <g id="Team" transform="translate(172.000000, 1131.000000)">
                <g id="Add-member" transform="translate(416.000000, 201.000000)">
                    <g id="plus" transform="translate(288.000000, 39.000000)">
                        <mask id="mask-2" fill="white">
                            <use xlink:href="#path-1"></use>
                        </mask>
                        <g id="Mask"></g>
                        <g id="🎨-color" mask="url(#mask-2)" fill="#C823B0">
                            <rect id="Black" x="0" y="0" width="18" height="18"></rect>
                        </g>
                    </g>
                </g>
            </g>
        </g>
    </g>
</svg>