<?xml version="1.0" encoding="UTF-8"?>
<svg width="36px" height="36px" viewBox="0 0 36 36" version="1.1" xmlns="http://www.w3.org/2000/svg" xmlns:xlink="http://www.w3.org/1999/xlink">
    <title>3E2805DF-EEEA-4A15-ACB6-F6F240683D0E</title>
    <g id="Forecast" stroke="none" stroke-width="1" fill="none" fill-rule="evenodd">
        <g id="Calc-Forecast" transform="translate(-52.000000, -746.000000)" fill="#000000" fill-rule="nonzero" stroke="#000000">
            <g id="Settings" transform="translate(44.000000, 747.000000)">
                <g id="settings-icon" transform="translate(9.000000, 0.000000)">
                    <path d="M0.46560478,20.280634 L4.0444782,21.0739509 C4.28797984,21.8522257 4.60141546,22.6068669 4.98095008,23.3286412 L3.00660491,26.4243667 C2.85832762,26.6601667 2.89299232,26.9671969 3.09011196,27.1640005 L6.85985863,30.9337472 C7.05666227,31.1308668 7.36369241,31.1655315 7.59949247,31.0172542 L10.695218,29.0429091 C11.4169923,29.4224437 12.1716335,29.7358793 12.9499082,29.979381 L13.7432252,33.5582544 C13.8130202,33.8174814 14.0473907,33.9981419 14.3158449,33.9998289 L19.6841551,33.9998289 C19.9684726,34.0065975 20.2181503,33.8118489 20.280634,33.5343952 L21.0739509,29.9555218 C21.8522257,29.7120202 22.6068669,29.3985845 23.3286412,29.0190499 L26.3945427,31.0172542 C26.6303428,31.1655315 26.9373729,31.1308668 27.1341766,30.9337472 L30.9039233,27.1640005 C31.1267155,26.9707946 31.1748806,26.6437793 31.0172542,26.3945427 L29.0429091,23.2988172 C29.4224437,22.5770429 29.7358793,21.8224018 29.979381,21.044127 L33.5582544,20.25081 C33.8153695,20.1816141 33.995484,19.950386 33.9998289,19.6841551 L33.9998289,14.3158449 C34.0065975,14.0315274 33.8118489,13.7818497 33.5343952,13.719366 L29.9555218,12.9260491 C29.7120202,12.1477743 29.3985845,11.3931331 29.0190499,10.6713588 L31.0172542,7.60545726 C31.1655315,7.3696572 31.1308668,7.06262706 30.9337472,6.86582342 L27.1640005,3.09607675 C26.9671969,2.8989571 26.6601667,2.86429241 26.4243667,3.0125697 L23.3286412,4.98691487 C22.6068669,4.60738025 21.8522257,4.29394463 21.0739509,4.05044299 L20.280634,0.46560478 C20.2181503,0.188151077 19.9684726,-0.006597528 19.6841551,0.000171076003 L14.3158449,0.000171076003 C14.0315274,-0.006597528 13.7818497,0.188151077 13.719366,0.46560478 L12.9260491,4.0444782 C12.1477743,4.28797984 11.3931331,4.60141546 10.6713588,4.98095008 L7.57563332,3.00660491 C7.33983325,2.85832762 7.03280311,2.89299232 6.83599948,3.09011196 L3.0662528,6.85985863 C2.86913316,7.05666227 2.83446847,7.36369241 2.98274576,7.59949247 L4.95709093,10.695218 C4.5775563,11.4169923 4.26412068,12.1716335 4.02061905,12.9499082 L0.441745624,13.7432252 C0.182518643,13.8130202 0.00185805438,14.0473907 0.000171076003,14.3158449 L0.000171076003,19.6841551 C-0.006597528,19.9684726 0.188151077,20.2181503 0.46560478,20.280634 Z M1.19330904,14.8109224 L4.65288669,14.0474294 C4.86519022,13.9992312 5.03437167,13.8391947 5.09428108,13.6298942 C5.35743374,12.703244 5.72776418,11.8104474 6.19776705,10.9695983 C6.30431774,10.7850471 6.30431774,10.5576706 6.19776705,10.3731194 L4.29499934,7.39072486 L7.38476007,4.30096413 L10.3671546,6.20373184 C10.5517058,6.31028253 10.7790823,6.31028253 10.9636335,6.20373184 C11.8032902,5.73127398 12.6963839,5.3608203 13.6239294,5.10024586 C13.8332299,5.04033646 13.9932665,4.87115501 14.0414646,4.65885148 L14.8109224,1.19330904 L19.1890776,1.19330904 L19.9525706,4.65288669 C20.0007688,4.86519022 20.1608053,5.03437167 20.3701058,5.09428108 C21.2976513,5.35485551 22.1907451,5.72530919 23.0304017,6.19776705 C23.2149529,6.30431774 23.4423294,6.30431774 23.6268806,6.19776705 L26.6092751,4.29499934 L29.6990359,7.38476007 L27.7962682,10.3671546 C27.6897175,10.5517058 27.6897175,10.7790823 27.7962682,10.9636335 C28.266271,11.8044826 28.6366015,12.6972792 28.8997541,13.6239294 C28.9596635,13.8332299 29.128845,13.9932665 29.3411485,14.0414646 L32.806691,14.8109224 L32.806691,19.1890776 L29.3471133,19.9525706 C29.1348098,20.0007688 28.9656283,20.1608053 28.9057189,20.3701058 C28.6425663,21.296756 28.2722358,22.1895526 27.802233,23.0304017 C27.6956823,23.2149529 27.6956823,23.4423294 27.802233,23.6268806 L29.7050007,26.6092751 L26.6152399,29.6990359 L23.6328454,27.7962682 C23.4482942,27.6897175 23.2209177,27.6897175 23.0363665,27.7962682 C22.1967098,28.268726 21.3036161,28.6391797 20.3760706,28.8997541 C20.1667701,28.9596635 20.0067335,29.128845 19.9585354,29.3411485 L19.1890776,32.806691 L14.8109224,32.806691 L14.0474294,29.3471133 C13.9992312,29.1348098 13.8391947,28.9656283 13.6298942,28.9057189 C12.7023487,28.6451445 11.8092549,28.2746908 10.9695983,27.802233 C10.7850471,27.6956823 10.5576706,27.6956823 10.3731194,27.802233 L7.39072486,29.7050007 L4.30096413,26.6152399 L6.20373184,23.6328454 C6.31028253,23.4482942 6.31028253,23.2209177 6.20373184,23.0363665 C5.73372897,22.1955174 5.36339853,21.3027208 5.10024586,20.3760706 C5.04033646,20.1667701 4.87115501,20.0067335 4.65885148,19.9585354 L1.19330904,19.1890776 L1.19330904,14.8109224 Z" id="Shape"></path>
                    <path d="M17,26 C21.9705627,26 26,21.9705627 26,17 C26,12.0294373 21.9705627,8 17,8 C12.0294373,8 8,12.0294373 8,17 C8.0067223,21.9677756 12.0322244,25.9932777 17,26 Z M17,9.22033898 C21.2965881,9.22033898 24.779661,12.7034119 24.779661,17 C24.779661,21.2965881 21.2965881,24.779661 17,24.779661 C12.7034119,24.779661 9.22033898,21.2965881 9.22033898,17 C9.22370381,12.7048064 12.7048064,9.22370381 17,9.22033898 L17,9.22033898 Z" id="Shape"></path>
                </g>
            </g>
        </g>
    </g>
</svg>