<?xml version="1.0" encoding="UTF-8"?>
<svg width="16px" height="18px" viewBox="0 0 16 18" version="1.1" xmlns="http://www.w3.org/2000/svg" xmlns:xlink="http://www.w3.org/1999/xlink">
    <title>85563907-BDE5-4485-BE48-BCF14BEEEE82</title>
    <defs>
        <path d="M6.875,6.609375 L6.875,14.203125 C6.875,14.4361055 6.68610547,14.625 6.453125,14.625 L5.609375,14.625 C5.37639453,14.625 5.1875,14.4361055 5.1875,14.203125 L5.1875,6.609375 C5.1875,6.37639453 5.37639453,6.1875 5.609375,6.1875 L6.453125,6.1875 C6.68610547,6.1875 6.875,6.37639453 6.875,6.609375 Z M10.390625,6.1875 L9.546875,6.1875 C9.31389453,6.1875 9.125,6.37639453 9.125,6.609375 L9.125,14.203125 C9.125,14.4361055 9.31389453,14.625 9.546875,14.625 L10.390625,14.625 C10.6236055,14.625 10.8125,14.4361055 10.8125,14.203125 L10.8125,6.609375 C10.8125,6.37639453 10.6236055,6.1875 10.390625,6.1875 Z M15.03125,2.8125 C15.4972461,2.8125 15.875,3.19025391 15.875,3.65625 L15.875,4.078125 C15.875,4.31110547 15.6861055,4.5 15.453125,4.5 L14.75,4.5 L14.75,16.3125 C14.75,17.2444922 13.9944922,18 13.0625,18 L2.9375,18 C2.00550781,18 1.25,17.2444922 1.25,16.3125 L1.25,4.5 L0.546875,4.5 C0.313894531,4.5 0.125,4.31110547 0.125,4.078125 L0.125,3.65625 C0.125,3.19025391 0.502753906,2.8125 0.96875,2.8125 L3.58476172,2.8125 L4.78070703,0.81928125 C5.08568147,0.310996219 5.63497941,0 6.22773828,0 L9.77229687,0 C10.3650557,0 10.9143537,0.310996219 11.2193281,0.81928125 L12.4152383,2.8125 L15.03125,2.8125 Z M5.55273828,2.8125 L10.4472969,2.8125 L9.83375,1.78991016 C9.79562819,1.72637453 9.72696595,1.6875 9.65287109,1.6875 L6.34719922,1.6875 C6.27310436,1.6875 6.20444212,1.72637453 6.16632031,1.78991016 L5.55273828,2.8125 Z M13.0625,4.5 L2.9375,4.5 L2.9375,16.1015625 C2.9375,16.2180601 3.03193994,16.3125 3.1484375,16.3125 L12.8515625,16.3125 C12.9680601,16.3125 13.0625,16.2180601 13.0625,16.1015625 L13.0625,4.5 Z" id="path-1"></path>
    </defs>
    <g id="Settings" stroke="none" stroke-width="1" fill="none" fill-rule="evenodd">
        <g id="Calc-Settings" transform="translate(-526.000000, -1229.000000)">
            <g id="Team" transform="translate(172.000000, 1131.000000)">
                <g id="team-card1" transform="translate(50.000000, 85.000000)">
                    <g id="Regular/trash-alt" transform="translate(304.000000, 13.000000)">
                        <mask id="mask-2" fill="white">
                            <use xlink:href="#path-1"></use>
                        </mask>
                        <g id="Mask"></g>
                        <g id="🎨-color" mask="url(#mask-2)" fill="#161616">
                            <g transform="translate(-1.000000, 0.000000)" id="Blue">
                                <rect x="0" y="0" width="18" height="18"></rect>
                            </g>
                        </g>
                    </g>
                </g>
            </g>
        </g>
    </g>
</svg>